<svg width="32" height="32" viewBox="0 0 32 32" fill="none" xmlns="http://www.w3.org/2000/svg">
  <rect width="32" height="32" rx="8" fill="#1A75FF"/>
  <path d="M16 7C10.477 7 6 11.477 6 17C6 22.523 10.477 27 16 27C21.523 27 26 22.523 26 17C26 11.477 21.523 7 16 7ZM16 9C20.418 9 24 12.582 24 17C24 21.418 20.418 25 16 25C11.582 25 8 21.418 8 17C8 12.582 11.582 9 16 9ZM16 12C14.895 12 14 12.895 14 14C14 15.105 14.895 16 16 16C17.105 16 18 15.105 18 14C18 12.895 17.105 12 16 12ZM10.5 18C9.672 18 9 18.672 9 19.5C9 20.328 9.672 21 10.5 21C11.328 21 12 20.328 12 19.5C12 18.672 11.328 18 10.5 18ZM21.5 18C20.672 18 20 18.672 20 19.5C20 20.328 20.672 21 21.5 21C22.328 21 23 20.328 23 19.5C23 18.672 22.328 18 21.5 18Z" fill="#FFFFFF"/>
</svg>